<svg xmlns="http://www.w3.org/2000/svg" width="53.959" height="67.006" viewBox="0 0 53.959 67.006">
  <g id="Group_6853" data-name="Group 6853" transform="translate(-85.019 -44.497)">
    <g id="Group_6837" data-name="Group 6837" transform="translate(131.819 96.068)">
      <path id="Path_8570" data-name="Path 8570" d="M373.922,368.894a.8.8,0,0,1,0-1.61,4.25,4.25,0,0,0,4.244-4.247.8.8,0,1,1,1.61,0A5.862,5.862,0,0,1,373.922,368.894Z" transform="translate(-373.117 -362.233)" fill="#f43a03" stroke="#fff306" stroke-width="1"/>
    </g>
    <g id="Group_6838" data-name="Group 6838" transform="translate(90.57 101.12)">
      <path id="Path_8571" data-name="Path 8571" d="M158.949,395.221H117.7a.8.8,0,1,1,0-1.61h41.248a.8.8,0,1,1,0,1.61Z" transform="translate(-116.896 -393.611)" fill="#f43a03" stroke="#fff306" stroke-width="1"/>
    </g>
    <g id="Group_6839" data-name="Group 6839" transform="translate(85.519 96.068)">
      <path id="Path_8572" data-name="Path 8572" d="M91.375,368.894a5.863,5.863,0,0,1-5.856-5.856.8.8,0,0,1,1.61,0,4.251,4.251,0,0,0,4.246,4.247.8.8,0,1,1,0,1.61Z" transform="translate(-85.519 -362.233)" fill="#f43a03" stroke="#fff306" stroke-width="1"/>
    </g>
    <g id="Group_6840" data-name="Group 6840" transform="translate(85.519 91.021)">
      <path id="Path_8573" data-name="Path 8573" d="M86.324,337.538a.8.8,0,0,1-.8-.8,5.861,5.861,0,0,1,5.856-5.852.8.8,0,1,1,0,1.61,4.249,4.249,0,0,0-4.246,4.242A.8.8,0,0,1,86.324,337.538Z" transform="translate(-85.519 -330.881)" fill="#f43a03" stroke="#fff306" stroke-width="1"/>
    </g>
    <g id="Group_6841" data-name="Group 6841" transform="translate(90.57 91.021)">
      <path id="Path_8574" data-name="Path 8574" d="M158.949,332.493H117.7a.8.8,0,1,1,0-1.61h41.248a.8.8,0,1,1,0,1.61Z" transform="translate(-116.896 -330.883)" fill="#f43a03" stroke="#fff306" stroke-width="1"/>
    </g>
    <g id="Group_6842" data-name="Group 6842" transform="translate(131.819 91.021)">
      <path id="Path_8575" data-name="Path 8575" d="M378.971,337.54a.8.8,0,0,1-.8-.8,4.248,4.248,0,0,0-4.244-4.242.8.8,0,0,1,0-1.61,5.86,5.86,0,0,1,5.854,5.852A.8.8,0,0,1,378.971,337.54Z" transform="translate(-373.117 -330.883)" fill="#f43a03" stroke="#fff306" stroke-width="1"/>
    </g>
    <g id="Group_6843" data-name="Group 6843" transform="translate(111.275 45.001)">
      <path id="Path_8576" data-name="Path 8576" d="M264.089,67.644a.805.805,0,0,1-.8-.8c0-6.622-1.923-12.033-5.562-15.646a15.889,15.889,0,0,0-11.407-4.562h-.006a.8.8,0,0,1-.005-1.61,17.5,17.5,0,0,1,12.552,5.03c3.95,3.922,6.038,9.728,6.038,16.789A.8.8,0,0,1,264.089,67.644Z" transform="translate(-245.505 -45.021)" fill="#f43a03" stroke="#fff306" stroke-width="1"/>
    </g>
    <g id="Group_6844" data-name="Group 6844" transform="translate(111.275 44.997)">
      <path id="Path_8577" data-name="Path 8577" d="M246.311,46.609a.8.8,0,0,1-.8-.8v0a.8.8,0,1,1,.8.807Z" transform="translate(-245.506 -44.997)" fill="#f43a03" stroke="#fff306" stroke-width="1"/>
    </g>
    <g id="Group_6845" data-name="Group 6845" transform="translate(111.112 44.997)">
      <path id="Path_8578" data-name="Path 8578" d="M245.378,46.611c-.031,0-.065,0-.1,0h.019a.8.8,0,0,1,0-1.61l.08,0,.083,0a.8.8,0,0,1,.017,1.61C245.44,46.609,245.409,46.611,245.378,46.611Z" transform="translate(-244.494 -44.997)" fill="#f43a03" stroke="#fff306" stroke-width="1"/>
    </g>
    <g id="Group_6846" data-name="Group 6846" transform="translate(111.112 44.999)">
      <path id="Path_8579" data-name="Path 8579" d="M245.3,46.622a.806.806,0,1,1,.8-.809v0A.8.8,0,0,1,245.3,46.622Z" transform="translate(-244.495 -45.01)" fill="#f43a03" stroke="#fff306" stroke-width="1"/>
    </g>
    <g id="Group_6847" data-name="Group 6847" transform="translate(90.844 45)">
      <path id="Path_8580" data-name="Path 8580" d="M119.4,92.644a.805.805,0,0,1-.711-1.181c.026-.052,2.856-5.789,2.394-24.607,0-.006,0-.013,0-.02,0-7.06,2.088-12.865,6.038-16.788a17.448,17.448,0,0,1,12.554-5.031.8.8,0,0,1-.005,1.61h-.006a15.872,15.872,0,0,0-11.408,4.563c-3.637,3.612-5.56,9.019-5.562,15.636.475,19.372-2.455,25.152-2.58,25.388A.8.8,0,0,1,119.4,92.644Z" transform="translate(-118.595 -45.018)" fill="#f43a03" stroke="#fff306" stroke-width="1"/>
    </g>
    <g id="Group_6848" data-name="Group 6848" transform="translate(90.844 91.017)">
      <path id="Path_8581" data-name="Path 8581" d="M160.1,332.466H119.4a.8.8,0,1,1,0-1.61h40.7a.8.8,0,1,1,0,1.61Z" transform="translate(-118.596 -330.856)" fill="#f43a03" stroke="#fff306" stroke-width="1"/>
    </g>
    <g id="Group_6849" data-name="Group 6849" transform="translate(129.002 66.014)">
      <path id="Path_8582" data-name="Path 8582" d="M358.965,202.161a.8.8,0,0,1-.71-.427c-.125-.237-3.058-6.018-2.582-25.4a.8.8,0,0,1,.8-.785h.02a.8.8,0,0,1,.785.824c-.462,18.818,2.37,24.555,2.4,24.611a.806.806,0,0,1-.716,1.176Z" transform="translate(-355.621 -175.55)" fill="#f43a03" stroke="#fff306" stroke-width="1"/>
    </g>
    <g id="Group_6850" data-name="Group 6850" transform="translate(105.464 101.287)">
      <path id="Path_8583" data-name="Path 8583" d="M215.943,404.364a6.513,6.513,0,0,1-5.934-9.245.8.8,0,0,1,1.465.667,4.927,4.927,0,1,0,8.939,0,.8.8,0,0,1,1.464-.671,6.471,6.471,0,0,1,.6,2.712A6.543,6.543,0,0,1,215.943,404.364Z" transform="translate(-209.408 -394.648)" fill="#f43a03" stroke="#fff306" stroke-width="1"/>
    </g>
    <g id="Group_6851" data-name="Group 6851" transform="translate(105.992 101.287)">
      <path id="Path_8584" data-name="Path 8584" d="M223.9,396.258h-10.4a.8.8,0,0,1,0-1.61h10.4a.8.8,0,0,1,0,1.61Z" transform="translate(-212.689 -394.648)" fill="#f43a03" stroke="#fff306" stroke-width="1"/>
    </g>
  </g>
</svg>
