<?xml version="1.0" encoding="utf-8"?>
<!-- Generator: Adobe Illustrator 24.3.0, SVG Export Plug-In . SVG Version: 6.00 Build 0)  -->
<svg version="1.1" id="Layer_1" xmlns="http://www.w3.org/2000/svg" xmlns:xlink="http://www.w3.org/1999/xlink" x="0px" y="0px"
	 viewBox="0 0 64 64" style="enable-background:new 0 0 64 64;" xml:space="preserve">
<style type="text/css">
	.st0{fill:#662D91;}
	.st1{fill:none;stroke:#662D91;stroke-width:2;stroke-linecap:round;stroke-linejoin:round;}
</style>
<g>
	<path class="st0" d="M32,27.1c-4.2,0-7.1-6.7-7.1-10.3c0.1-1.9,0.9-3.7,2.3-5c1.4-1.3,3.2-2,5.1-1.9c3.6,0.1,6.6,3.1,6.8,6.7
		c0,0.1,0,0.1,0,0.2C39.2,20.4,36.2,27.1,32,27.1z M32,11.8c-1.3,0-2.5,0.5-3.5,1.4c-1,0.9-1.6,2.2-1.7,3.6c0,3,2.5,8.3,5.2,8.3
		c2.6,0,5.1-5.1,5.1-8.2c0,0,0-0.1,0-0.1c-0.1-2.7-2.3-4.8-4.9-4.9C32.1,11.8,32.1,11.8,32,11.8z"/>
</g>
<g>
	<path class="st0" d="M44.7,44.3c-0.6,0-1-0.4-1-1c0-6.4-5.2-11.7-11.7-11.7c-6.4,0-11.7,5.2-11.7,11.7c0,0.6-0.4,1-1,1s-1-0.4-1-1
		c0-7.5,6.1-13.7,13.7-13.7s13.7,6.1,13.7,13.7C45.7,43.9,45.2,44.3,44.7,44.3z"/>
</g>
<g>
	<path class="st0" d="M48.3,29.8c-3.6,0-6.2-5.8-6.2-9c0-3.4,2.8-6.2,6.2-6.2s6.2,2.8,6.2,6.2c0,0.1,0,0.1,0,0.2
		C54.4,24.2,51.9,29.8,48.3,29.8z M48.3,16.6c-2.3,0-4.2,1.9-4.2,4.2c0,2.5,2.1,7,4.2,7s4.2-4.5,4.2-7c0,0,0-0.1,0-0.1
		C52.4,18.4,50.6,16.6,48.3,16.6z"/>
</g>
<g>
	<path class="st0" d="M59,44.5L59,44.5c-0.6,0-1-0.4-1-1c0-2.1-0.7-4.2-2-5.9c-1.6-2.1-3.8-3.4-6.4-3.8c-2.6-0.4-5.1,0.3-7.2,1.9
		C42,36.1,41.3,36,41,35.5c-0.3-0.4-0.2-1.1,0.2-1.4c2.5-1.9,5.6-2.7,8.7-2.3c3.1,0.4,5.8,2,7.7,4.5c1.5,2,2.4,4.5,2.4,7.1
		C60,44,59.6,44.5,59,44.5z"/>
</g>
<g>
	<path class="st0" d="M15.7,29.8c-3.6,0-6.1-5.7-6.2-8.8c0-0.1,0-0.1,0-0.2c0-3.4,2.8-6.2,6.2-6.2s6.2,2.8,6.2,6.2
		C21.9,24,19.4,29.8,15.7,29.8z M11.5,20.7c0,0,0,0.1,0,0.1c0,2.5,2.1,7,4.2,7s4.2-4.5,4.2-7c0-2.3-1.9-4.2-4.2-4.2
		C13.4,16.6,11.6,18.4,11.5,20.7z"/>
</g>
<g>
	<path class="st0" d="M5,44.5c-0.6,0-1-0.4-1-1c0-2.5,0.8-5.1,2.4-7.1c1.9-2.5,4.6-4.1,7.7-4.5c3.1-0.4,6.2,0.4,8.7,2.3
		c0.4,0.3,0.5,1,0.2,1.4c-0.3,0.4-1,0.5-1.4,0.2c-2.1-1.6-4.6-2.2-7.2-1.9c-2.6,0.4-4.9,1.7-6.4,3.8c-1.3,1.7-2,3.8-2,5.9
		C6,44,5.6,44.5,5,44.5z"/>
</g>
<g>
	<path class="st0" d="M32,57.2c-2.3,0-4.5-0.6-6.6-1.7c-3.2-1.8-5.5-4.7-6.5-8.2c-0.2-0.5,0.2-1.1,0.7-1.2c0.5-0.2,1.1,0.2,1.2,0.7
		c0.9,3,2.8,5.5,5.6,7c2.7,1.5,5.9,1.9,8.9,1c3.9-1.1,6.8-4.1,8-8c0.2-0.5,0.7-0.8,1.2-0.7c0.5,0.2,0.8,0.7,0.7,1.2
		c-1.3,4.5-4.8,8-9.3,9.3C34.6,57,33.3,57.2,32,57.2z"/>
</g>
<g>
	<path class="st1" d="M32,50"/>
</g>
</svg>
