<svg xmlns="http://www.w3.org/2000/svg" width="96.292" height="96.292" viewBox="0 0 96.292 96.292">
  <g id="Icon_ionic-ios-add-circle-outline" data-name="Icon ionic-ios-add-circle-outline" transform="translate(-3.375 -3.375)">
    <path id="Path_8760" data-name="Path 8760" d="M56.111,31.46H38.867V14.215a3.7,3.7,0,0,0-7.407,0V31.46H14.215a3.547,3.547,0,0,0-3.7,3.7,3.585,3.585,0,0,0,3.7,3.7H31.46V56.111a3.587,3.587,0,0,0,3.7,3.7,3.685,3.685,0,0,0,3.7-3.7V38.867H56.111a3.7,3.7,0,1,0,0-7.407Z" transform="translate(16.357 16.357)" fill="#fff306"/>
    <path id="Path_8761" data-name="Path 8761" d="M51.521,9.856A41.671,41.671,0,0,1,80.987,80.987,41.671,41.671,0,0,1,22.055,22.055a41.389,41.389,0,0,1,29.466-12.2m0-6.481A48.146,48.146,0,1,0,99.667,51.521,48.138,48.138,0,0,0,51.521,3.375Z" transform="translate(0 0)" fill="#fff306"/>
  </g>
</svg>
