<?xml version="1.0" encoding="utf-8"?>
<!-- Generator: Adobe Illustrator 24.3.0, SVG Export Plug-In . SVG Version: 6.00 Build 0)  -->
<svg version="1.1" id="Livello_1" xmlns="http://www.w3.org/2000/svg" xmlns:xlink="http://www.w3.org/1999/xlink" x="0px" y="0px"
	 viewBox="0 0 128 128" style="enable-background:new 0 0 128 128;" xml:space="preserve">
<style type="text/css">
	.st0{fill:#662D91;}
</style>
<path class="st0" d="M64,0C28.7,0,0,28.7,0,64s28.7,64,64,64s64-28.7,64-64C128,28.7,99.3,0,64,0z M64,122C32,122,6,96,6,64
	S32,6,64,6s58,26,58,58C122,96,96,122,64,122z"/>
<path class="st0" d="M87.9,42.4L50.4,79.2L40.2,68.4c-1.2-1.2-3.1-1.2-4.2,0c-1.1,1.1-1.2,3-0.1,4.1l12.3,13
	c0.6,0.6,1.3,0.9,2.1,0.9h0c0.8,0,1.5-0.3,2.1-0.9l39.7-39c1.2-1.2,1.2-3.1,0-4.2C91,41.2,89.1,41.2,87.9,42.4L87.9,42.4z"/>
</svg>
