<svg xmlns="http://www.w3.org/2000/svg" width="86.422" height="63.667" viewBox="0 0 86.422 63.667">
  <path id="Path_8758" data-name="Path 8758" d="M106.556,34.689c-1.972-1.539-5.072-2.034-9.434-2.333-6.326-.43-17.061-.688-28.716-.688s-22.389.256-28.713.688c-4.362.3-7.461.794-9.432,2.333-1.361,1.064-3.024,3.122-3.8,9.668-1.025,8.711-1.025,28.576,0,37.291.772,6.537,2.434,8.6,3.793,9.661,1.972,1.546,5.074,2.041,9.437,2.34,6.358.429,17.091.687,28.711.687s22.356-.256,28.716-.687c4.362-.3,7.463-.792,9.439-2.341,1.359-1.071,3.021-3.137,3.784-9.659,1.03-8.715,1.03-28.581,0-37.291C109.582,37.826,107.92,35.762,106.556,34.689Zm.4,46.561c-.463,3.948-1.306,6.43-2.5,7.371-1.359,1.066-4.585,1.417-7.56,1.621-6.288.425-16.936.678-28.486.678s-22.2-.253-28.481-.678c-2.977-.2-6.2-.555-7.564-1.621-1.2-.936-2.039-3.416-2.507-7.371-1-8.529-1-27.968,0-36.493.466-3.96,1.31-6.442,2.505-7.374,1.361-1.062,4.589-1.414,7.564-1.619,6.252-.425,16.9-.68,28.481-.68s22.232.254,28.482.68c2.978.2,6.2.557,7.562,1.616,1.2.941,2.041,3.422,2.5,7.378C107.963,53.282,107.963,72.721,106.954,81.25Z" transform="translate(-25.196 -31.168)" fill="#fff" stroke="#fff" stroke-width="1"/>
</svg>
