<svg xmlns="http://www.w3.org/2000/svg" width="62.334" height="74.515" viewBox="0 0 62.334 74.515">
  <g id="user" transform="translate(0.5 0.5)">
    <path id="Path_8756" data-name="Path 8756" d="M104.739,35.413a17.133,17.133,0,0,0,12.52-5.188,17.134,17.134,0,0,0,5.187-12.519,17.135,17.135,0,0,0-5.188-12.519,17.7,17.7,0,0,0-25.039,0,17.133,17.133,0,0,0-5.188,12.519,17.134,17.134,0,0,0,5.188,12.52A17.139,17.139,0,0,0,104.739,35.413ZM95.266,8.233a13.394,13.394,0,0,1,18.946,0,12.8,12.8,0,0,1,3.926,9.473,12.8,12.8,0,0,1-3.926,9.473,13.392,13.392,0,0,1-18.946,0,12.8,12.8,0,0,1-3.926-9.473,12.8,12.8,0,0,1,3.926-9.473Zm0,0" transform="translate(-74.535 0)" fill="#fff306" stroke="#fff" stroke-width="1"/>
    <path id="Path_8757" data-name="Path 8757" d="M61.185,268.335a43.734,43.734,0,0,0-.6-4.645,36.6,36.6,0,0,0-1.143-4.67,23.069,23.069,0,0,0-1.92-4.356,16.419,16.419,0,0,0-2.895-3.773,12.765,12.765,0,0,0-4.159-2.613,14.374,14.374,0,0,0-5.309-.961,5.389,5.389,0,0,0-2.878,1.22c-.863.563-1.872,1.213-3,1.933a17.18,17.18,0,0,1-3.879,1.709,15.063,15.063,0,0,1-9.489,0,17.125,17.125,0,0,1-3.876-1.708c-1.116-.713-2.125-1.363-3-1.934a5.383,5.383,0,0,0-2.877-1.22,14.355,14.355,0,0,0-5.309.962A12.755,12.755,0,0,0,6.7,250.891,16.424,16.424,0,0,0,3.8,254.664a23.113,23.113,0,0,0-1.92,4.356,36.687,36.687,0,0,0-1.142,4.67,43.435,43.435,0,0,0-.6,4.647c-.1,1.4-.147,2.865-.147,4.341a12.207,12.207,0,0,0,3.625,9.235,13.05,13.05,0,0,0,9.342,3.407h35.4a13.052,13.052,0,0,0,9.342-3.407,12.2,12.2,0,0,0,3.626-9.236c0-1.481-.05-2.942-.149-4.342Zm-6.448,10.457a8.787,8.787,0,0,1-6.372,2.22h-35.4a8.787,8.787,0,0,1-6.372-2.22,7.971,7.971,0,0,1-2.288-6.115c0-1.378.045-2.738.136-4.043a39.181,39.181,0,0,1,.538-4.184,32.354,32.354,0,0,1,1-4.117,18.816,18.816,0,0,1,1.563-3.542A12.173,12.173,0,0,1,9.677,254a8.467,8.467,0,0,1,2.767-1.72,9.913,9.913,0,0,1,3.393-.655c.151.08.42.233.855.517.886.577,1.906,1.236,3.035,1.956a21.344,21.344,0,0,0,4.869,2.176,19.367,19.367,0,0,0,12.139,0,21.364,21.364,0,0,0,4.872-2.177c1.155-.738,2.147-1.378,3.033-1.955.435-.283.7-.437.855-.517a9.92,9.92,0,0,1,3.394.655A8.48,8.48,0,0,1,51.654,254a12.139,12.139,0,0,1,2.127,2.789,18.754,18.754,0,0,1,1.563,3.541,32.28,32.28,0,0,1,1.005,4.117,39.508,39.508,0,0,1,.538,4.185h0c.091,1.3.137,2.66.138,4.042a7.971,7.971,0,0,1-2.288,6.114Zm0,0" transform="translate(0 -211.805)" fill="#fff306" stroke="#fff" stroke-width="1"/>
  </g>
</svg>
